<?xml version="1.0" encoding="UTF-8" standalone="no"?>
<!-- Created with Inkscape (http://www.inkscape.org/) -->

<svg
   xmlns:dc="http://purl.org/dc/elements/1.1/"
   xmlns:cc="http://creativecommons.org/ns#"
   xmlns:rdf="http://www.w3.org/1999/02/22-rdf-syntax-ns#"
   xmlns:svg="http://www.w3.org/2000/svg"
   xmlns="http://www.w3.org/2000/svg"
   version="1.1"
   width="100"
   height="100"
   id="svg2">
  <defs
     id="defs4" />
  <metadata
     id="metadata7">
    <rdf:RDF>
      <cc:Work
         rdf:about="">
        <dc:format>image/svg+xml</dc:format>
        <dc:type
           rdf:resource="http://purl.org/dc/dcmitype/StillImage" />
        <dc:title></dc:title>
      </cc:Work>
    </rdf:RDF>
  </metadata>
  <g
     transform="translate(0,-952.36218)"
     id="layer1">
    <path
       d="M 215.17142,219.84791 C 1224.8072,-284.96996 -919.22422,49.004723 151.65624,405.96486 1222.5367,762.92499 -292.30359,-790.67359 212.51428,218.96219 717.33215,1228.598 383.35746,-915.43345 26.397326,155.44701 -330.56281,1226.3275 1223.0358,-288.51282 213.39999,216.30505 -796.2358,721.12292 1347.7956,387.14823 276.91517,30.188098 -793.96529,-326.77204 720.875,1226.8265 216.05713,217.19076 -288.76074,-792.44502 45.213952,1351.5864 402.17408,280.70594 759.13422,-790.17452 -794.46437,724.66577 215.17142,219.84791 z"
       transform="matrix(0.13461429,0,0,0.13461429,21.154082,973.00597)"
       id="path2985"
       style="fill:#ff0000;fill-opacity:0.76444445;fill-rule:nonzero;stroke:#660000;stroke-opacity:0.31555559" />
    <path
       d="m 164.04494,40.636703 a 16.573034,16.10487 0 1 1 -33.14607,0 16.573034,16.10487 0 1 1 33.14607,0 z"
       transform="matrix(0.73183942,0,0,0.7531138,-57.925756,971.75812)"
       id="path3765"
       style="fill:#ffff00;fill-opacity:1;fill-rule:nonzero;stroke:#000000;stroke-opacity:0.05333336" />
  </g>
</svg>
