<?xml version="1.0" encoding="UTF-8" standalone="no"?>
<!-- Created with Inkscape (http://www.inkscape.org/) -->

<svg
   xmlns:dc="http://purl.org/dc/elements/1.1/"
   xmlns:cc="http://creativecommons.org/ns#"
   xmlns:rdf="http://www.w3.org/1999/02/22-rdf-syntax-ns#"
   xmlns:svg="http://www.w3.org/2000/svg"
   xmlns="http://www.w3.org/2000/svg"
   xmlns:xlink="http://www.w3.org/1999/xlink"
   xmlns:sodipodi="http://sodipodi.sourceforge.net/DTD/sodipodi-0.dtd"
   xmlns:inkscape="http://www.inkscape.org/namespaces/inkscape"
   version="1.1"
   width="66"
   height="64"
   id="svg2"
   inkscape:version="0.48.5 r10040"
   sodipodi:docname="number2.svg">
  <sodipodi:namedview
     pagecolor="#ffffff"
     bordercolor="#666666"
     borderopacity="1"
     objecttolerance="10"
     gridtolerance="10"
     guidetolerance="10"
     inkscape:pageopacity="0"
     inkscape:pageshadow="2"
     inkscape:window-width="1233"
     inkscape:window-height="756"
     id="namedview4043"
     showgrid="false"
     inkscape:zoom="3.6875"
     inkscape:cx="33"
     inkscape:cy="32"
     inkscape:window-x="47"
     inkscape:window-y="0"
     inkscape:window-maximized="1"
     inkscape:current-layer="layer1" />
  <defs
     id="defs4">
    <linearGradient
       id="linearGradient3914">
      <stop
         id="stop3916"
         style="stop-color:#000000;stop-opacity:1"
         offset="0" />
    </linearGradient>
    <linearGradient
       x1="33.982647"
       y1="1028.7086"
       x2="42.761078"
       y2="1028.7086"
       id="linearGradient3918"
       xlink:href="#linearGradient3914"
       gradientUnits="userSpaceOnUse" />
    <linearGradient
       x1="33.982647"
       y1="1028.7086"
       x2="42.761078"
       y2="1028.7086"
       id="linearGradient3928"
       xlink:href="#linearGradient3914"
       gradientUnits="userSpaceOnUse"
       gradientTransform="translate(-5.9116926,8.7845339)" />
  </defs>
  <metadata
     id="metadata7">
    <rdf:RDF>
      <cc:Work
         rdf:about="">
        <dc:format>image/svg+xml</dc:format>
        <dc:type
           rdf:resource="http://purl.org/dc/dcmitype/StillImage" />
        <dc:title />
      </cc:Work>
    </rdf:RDF>
  </metadata>
  <g
     transform="translate(0,-988.3622)"
     id="layer1">
    <path
       d="m 225.34317,322.18666 c -0.99757,1.47839 -4.33547,-2.45541 -5.62221,-1.22048 -1.29443,1.24232 2.46608,4.75945 0.94441,5.70993 -1.51264,0.94484 -2.96193,-4.00652 -4.63973,-3.40172 -1.68782,0.60842 0.31704,5.35102 -1.45967,5.6004 -1.76616,0.24791 -1.07627,-4.86486 -2.85501,-4.99477 -1.78936,-0.13068 -1.88682,5.01735 -3.61136,4.52253 -1.7143,-0.49189 0.9955,-4.88204 -0.57662,-5.72419 -1.58151,-0.84718 -3.76444,3.81613 -5.13862,2.66265 -1.36603,-1.14663 2.89514,-4.05505 1.80147,-5.46383 -1.1002,-1.4172 -4.99115,1.95507 -5.77736,0.34239 -0.78155,-1.60311 4.29417,-2.52691 3.86806,-4.25874 -0.42866,-1.74216 -5.35484,-0.24403 -5.41715,-2.03707 -0.0619,-1.78241 4.95072,-0.56186 5.26584,-2.31727 0.317,-1.7659 -4.79263,-2.40095 -4.12025,-4.06432 0.66838,-1.65349 4.75123,1.50036 5.7531,0.0249 1.00785,-1.48429 -3.40174,-4.14271 -2.11094,-5.38879 1.28314,-1.23869 3.73021,3.30315 5.2456,2.36272 1.52443,-0.94603 -1.42265,-5.16816 0.26338,-5.7815 1.67603,-0.6097 2.06421,4.53479 3.83109,4.29203 1.77743,-0.2442 0.80243,-5.29999 2.59216,-5.17453 1.77911,0.12471 0.0413,4.98232 1.75415,5.47921 1.72308,0.49985 2.88875,-4.51541 4.47273,-3.67285 1.57457,0.83756 -1.98878,4.56837 -0.62611,5.71899 1.37081,1.15748 4.4756,-2.95007 5.57993,-1.5361 1.09778,1.40559 -3.67497,3.36451 -2.8981,4.9699 0.78151,1.61497 5.28856,-0.87464 5.7223,0.86627 0.43117,1.73057 -4.72571,1.57888 -4.66898,3.36146 0.0571,1.79322 5.18709,1.35203 4.87524,3.11885 -0.31,1.75633 -4.95935,-0.47974 -5.63255,1.1718 -0.67723,1.6614 4.18871,3.34492 3.1852,4.83215 z"
       transform="matrix(2.1218862,0,0,2.0682323,-417.64996,372.36056)"
       id="path2995"
       style="fill:#e3e2db" />
    <text
       x="240.81081"
       y="354.57968"
       id="text2989"
       xml:space="preserve"
       style="font-size:40px;font-style:normal;font-weight:normal;line-height:125%;letter-spacing:0px;word-spacing:0px;fill:#000000;fill-opacity:1;stroke:none;font-family:Sans"><tspan
         x="240.81081"
         y="354.57968"
         id="tspan2991"
         style="font-style:normal;font-variant:normal;font-weight:normal;font-stretch:normal;font-family:Santa Fe LET;-inkscape-font-specification:Santa Fe LET" /></text>
    <path
       d="m 240.94996,323.14217 c 11.80971,-12.21694 -22.23447,8.21544 -5.89849,3.54011 16.33597,-4.67532 -23.36333,-4.00246 -6.8783,0.11658 16.48503,4.11904 -18.23201,-15.14789 -6.01508,-3.33819 12.21694,11.80971 -8.21543,-22.23446 -3.54011,-5.89849 4.67533,16.33598 4.00246,-23.36333 -0.11658,-6.8783 -4.11904,16.48503 15.1479,-18.23201 3.33819,-6.01507 -11.80971,12.21693 22.23447,-8.21544 5.89849,-3.54012 -16.33597,4.67533 23.36333,4.00246 6.8783,-0.11658 -16.48503,-4.11903 18.23201,15.1479 6.01508,3.33819 -12.21694,-11.80971 8.21543,22.23447 3.54011,5.89849 -4.67533,-16.33597 -4.00246,23.36334 0.11658,6.8783 4.11904,-16.48503 -15.14789,18.23202 -3.33819,6.01508 z"
       transform="matrix(1.7967461,0,0,1.8054548,-383.45892,454.51074)"
       id="path2999"
       style="fill:#aca793" />
    <g
       style="font-size:40px;font-style:normal;font-weight:normal;line-height:125%;letter-spacing:0px;word-spacing:0px;fill:#000000;fill-opacity:1;stroke:none;font-family:Sans"
       id="text3930">
      <path
         d="m 27.749043,1032.192 13.769531,0 0,3.3203 -18.515625,0 0,-3.3203 c 1.497391,-1.5495 3.53515,-3.6263 6.113281,-6.2305 2.591134,-2.6171 4.218737,-4.3033 4.882813,-5.0585 1.263005,-1.4193 2.141911,-2.6172 2.636718,-3.5938 0.507796,-0.9896 0.761702,-1.9596 0.761719,-2.9102 -1.7e-5,-1.5494 -0.546892,-2.8124 -1.640625,-3.789 -1.080744,-0.9766 -2.493503,-1.4648 -4.238281,-1.4649 -1.23699,1e-4 -2.545582,0.2149 -3.925781,0.6446 -1.367194,0.4297 -2.832036,1.0807 -4.394532,1.9531 l 0,-3.9844 c 1.588537,-0.638 3.072911,-1.1197 4.453125,-1.4453 1.3802,-0.3255 2.643219,-0.4882 3.789063,-0.4883 3.020819,10e-5 5.42967,0.7553 7.226562,2.2657 1.796855,1.5104 2.695291,3.5286 2.695313,6.0546 -2.2e-5,1.198 -0.227886,2.3373 -0.683594,3.418 -0.442728,1.0677 -1.25653,2.3308 -2.441406,3.7891 -0.325539,0.3776 -1.360694,1.4713 -3.105469,3.2812 -1.744805,1.7969 -4.20574,4.3164 -7.382812,7.5586"
         style=""
         id="path4046" />
    </g>
  </g>
</svg>
