<?xml version="1.0" encoding="UTF-8" standalone="no"?>
<!-- Created with Inkscape (http://www.inkscape.org/) -->

<svg
   xmlns:dc="http://purl.org/dc/elements/1.1/"
   xmlns:cc="http://creativecommons.org/ns#"
   xmlns:rdf="http://www.w3.org/1999/02/22-rdf-syntax-ns#"
   xmlns:svg="http://www.w3.org/2000/svg"
   xmlns="http://www.w3.org/2000/svg"
   xmlns:sodipodi="http://sodipodi.sourceforge.net/DTD/sodipodi-0.dtd"
   xmlns:inkscape="http://www.inkscape.org/namespaces/inkscape"
   version="1.1"
   width="200"
   height="200"
   id="svg2"
   inkscape:version="0.48.5 r10040"
   sodipodi:docname="up.svg">
  <sodipodi:namedview
     pagecolor="#ffffff"
     bordercolor="#666666"
     borderopacity="1"
     objecttolerance="10"
     gridtolerance="10"
     guidetolerance="10"
     inkscape:pageopacity="0"
     inkscape:pageshadow="2"
     inkscape:window-width="1069"
     inkscape:window-height="748"
     id="namedview3045"
     showgrid="false"
     inkscape:zoom="2.704617"
     inkscape:cx="93.529621"
     inkscape:cy="100.01416"
     inkscape:window-x="71"
     inkscape:window-y="0"
     inkscape:window-maximized="0"
     inkscape:current-layer="g3001" />
  <defs
     id="defs4" />
  <metadata
     id="metadata7">
    <rdf:RDF>
      <cc:Work
         rdf:about="">
        <dc:format>image/svg+xml</dc:format>
        <dc:type
           rdf:resource="http://purl.org/dc/dcmitype/StillImage" />
        <dc:title></dc:title>
      </cc:Work>
    </rdf:RDF>
  </metadata>
  <g
     transform="matrix(1,0,0,-1,0,1052.3339)"
     id="layer1">
    <path
       d=""
       id="path2991"
       style="fill:#ff0000;fill-opacity:0.76444445;fill-rule:nonzero;stroke:#000000;stroke-width:2.27272725;stroke-opacity:0.22222224"
       inkscape:connector-curvature="0" />
    <path
       d=""
       id="path2993"
       style="fill:#ff0000;fill-opacity:0.76444445;fill-rule:nonzero;stroke:#000000;stroke-width:2.27272725;stroke-opacity:0.22222224"
       inkscape:connector-curvature="0" />
    <g
       transform="matrix(0.87601105,0,0,0.93835323,-156.83048,464.56623)"
       id="g3001">
      <path
         d="m 250.00001,553.20186 156.81818,72.72728 -2.27273,-140.9091 -34.09091,54.54546 c 0,0 -12.62588,-54.81829 -29.54546,-81.81819 -12.39249,-19.77567 -28.47867,-18.62186 -47.72726,-31.81818 -29.70435,-20.36451 -113.63637,-9.09091 -113.63637,-9.09091 0,0 42.53698,44.43359 61.36363,61.36364 18.3227,16.47687 40.547,-13.96014 70.45455,13.63636 24.61135,22.70954 29.54545,63.63636 29.54545,63.63636 z"
         id="path2995"
         style="fill:none;stroke:#000000;stroke-width:1px;stroke-linecap:butt;stroke-linejoin:miter;stroke-opacity:1"
         inkscape:connector-curvature="0" />
      <path
         d="m 193.68995,417.52048 -9.71914,1.3632 30.77977,30.68182 30.77978,30.68181 27.00824,0 c 26.75832,0 27.08919,0.0648 35.75755,7.00202 15.93801,12.75508 24.01527,28.20312 34.18373,65.3776 1.09202,3.9923 -0.91197,4.1592 -40.93359,3.4091 -23.145,-0.4338 -41.91019,-0.62264 -41.70042,-0.41966 0.42568,0.41189 137.38081,64.10844 141.85868,65.97714 2.22819,0.92987 2.79243,-10.01844 2.61614,-50.76213 -0.12362,-28.57124 -0.89066,-57.5727 -1.70454,-64.4477 l -1.47978,-12.5 -14.402,23.28336 c -7.92111,12.80585 -15.22374,23.79121 -16.22807,24.41193 -1.00434,0.62071 -2.54212,-2.69771 -3.4173,-7.37427 -2.37247,-12.67745 -16.71423,-54.50529 -22.81973,-66.55392 -2.93754,-5.79695 -8.83833,-13.61063 -13.11286,-17.36372 -12.53566,-11.00645 -52.96352,-29.80536 -69.79277,-32.45355 -15.56486,-2.44923 -51.26587,-2.61437 -67.67369,-0.31303 z"
         id="path2997"
         style="fill:#e9b380;fill-opacity:0.76444445;fill-rule:nonzero;stroke:#ff0000;stroke-width:2.27272725;stroke-opacity:0.22222224"
         inkscape:connector-curvature="0" />
      <path
         d="m 195.65815,419.26823 -7.75094,1.09419 29.30906,29.37426 29.30906,29.37427 25.71384,0 c 28.99861,0 34.15811,1.69811 45.94366,15.1211 12.88992,14.68081 29.40703,56.8345 24.27888,61.96265 -1.54593,1.54593 -15.18613,2.47385 -36.66625,2.49436 l -34.20455,0.0327 63.3555,29.51279 c 34.84552,16.23204 64.24893,29.51279 65.34091,29.51279 2.21583,0 2.21474,-76.54066 -0.001,-100.78862 l -1.42225,-15.56135 -13.33375,20.77586 c -7.33356,11.42672 -14.38455,20.42559 -15.66885,19.99749 -1.28431,-0.4281 -6.65291,-14.02463 -11.93023,-30.21451 -16.73423,-51.33764 -21.5171,-58.21883 -51.1993,-73.66121 -30.72004,-15.98232 -40.60737,-18.58167 -73.77696,-19.39577 -16.25,-0.39884 -33.03338,-0.23277 -37.2964,0.36903 z"
         id="path2999"
         style="fill:#00b600;fill-opacity:0.76444447;fill-rule:nonzero;stroke:#000000;stroke-width:2.27272724999999998;stroke-opacity:0.22222223999999999"
         inkscape:connector-curvature="0" />
    </g>
  </g>
</svg>
