<?xml version="1.0" encoding="UTF-8" standalone="no"?>
<!-- Created with Inkscape (http://www.inkscape.org/) -->

<svg
   xmlns:osb="http://www.openswatchbook.org/uri/2009/osb"
   xmlns:dc="http://purl.org/dc/elements/1.1/"
   xmlns:cc="http://creativecommons.org/ns#"
   xmlns:rdf="http://www.w3.org/1999/02/22-rdf-syntax-ns#"
   xmlns:svg="http://www.w3.org/2000/svg"
   xmlns="http://www.w3.org/2000/svg"
   xmlns:xlink="http://www.w3.org/1999/xlink"
   xmlns:sodipodi="http://sodipodi.sourceforge.net/DTD/sodipodi-0.dtd"
   xmlns:inkscape="http://www.inkscape.org/namespaces/inkscape"
   width="66"
   height="64"
   id="svg2"
   version="1.1"
   inkscape:version="0.48.5 r10040"
   sodipodi:docname="number1.svg">
  <defs
     id="defs4">
    <linearGradient
       id="linearGradient6102">
      <stop
         style="stop-color:#fffc00;stop-opacity:1;"
         offset="0"
         id="stop6104" />
      <stop
         style="stop-color:#fffc90;stop-opacity:1;"
         offset="1"
         id="stop6106" />
    </linearGradient>
    <linearGradient
       id="linearGradient6094">
      <stop
         style="stop-color:#ffd800;stop-opacity:1;"
         offset="0"
         id="stop6096" />
      <stop
         style="stop-color:#ffc900;stop-opacity:0.6837607;"
         offset="1"
         id="stop6098" />
    </linearGradient>
    <linearGradient
       id="linearGradient3914"
       osb:paint="solid">
      <stop
         style="stop-color:#000000;stop-opacity:1;"
         offset="0"
         id="stop3916" />
    </linearGradient>
    <linearGradient
       inkscape:collect="always"
       xlink:href="#linearGradient3914"
       id="linearGradient3918"
       x1="33.982647"
       y1="1028.7086"
       x2="42.761078"
       y2="1028.7086"
       gradientUnits="userSpaceOnUse" />
    <linearGradient
       inkscape:collect="always"
       xlink:href="#linearGradient3914"
       id="linearGradient3928"
       gradientUnits="userSpaceOnUse"
       x1="33.982647"
       y1="1028.7086"
       x2="42.761078"
       y2="1028.7086"
       gradientTransform="translate(-5.9116926,8.7845339)" />
    <radialGradient
       inkscape:collect="always"
       xlink:href="#linearGradient6094"
       id="radialGradient6100"
       cx="212.3315"
       cy="313.37909"
       fx="212.3315"
       fy="313.37909"
       r="15.472683"
       gradientTransform="matrix(1,0,0,1.0020513,0,-0.64282825)"
       gradientUnits="userSpaceOnUse" />
    <radialGradient
       inkscape:collect="always"
       xlink:href="#linearGradient6102"
       id="radialGradient6108"
       cx="231.39478"
       cy="313.90549"
       fx="231.39478"
       fy="313.90549"
       r="13.486006"
       gradientUnits="userSpaceOnUse" />
  </defs>
  <sodipodi:namedview
     id="base"
     pagecolor="#ffffff"
     bordercolor="#666666"
     borderopacity="1.0"
     inkscape:pageopacity="0.0"
     inkscape:pageshadow="2"
     inkscape:zoom="8.5134922"
     inkscape:cx="32.848384"
     inkscape:cy="31.860856"
     inkscape:document-units="px"
     inkscape:current-layer="layer1"
     showgrid="false"
     inkscape:window-width="1193"
     inkscape:window-height="752"
     inkscape:window-x="89"
     inkscape:window-y="0"
     inkscape:window-maximized="0" />
  <metadata
     id="metadata7">
    <rdf:RDF>
      <cc:Work
         rdf:about="">
        <dc:format>image/svg+xml</dc:format>
        <dc:type
           rdf:resource="http://purl.org/dc/dcmitype/StillImage" />
        <dc:title />
      </cc:Work>
    </rdf:RDF>
  </metadata>
  <g
     inkscape:label="Layer 1"
     inkscape:groupmode="layer"
     id="layer1"
     transform="translate(0,-988.3622)">
    <path
       sodipodi:type="star"
       id="path2995"
       sodipodi:sides="15"
       sodipodi:cx="212.44366"
       sodipodi:cy="313.42773"
       sodipodi:r1="15.592173"
       sodipodi:r2="10.47794"
       sodipodi:arg1="0.59650098"
       sodipodi:arg2="0.80302339"
       inkscape:flatsided="false"
       inkscape:rounded="0.31"
       inkscape:randomized="0"
       d="m 225.34317,322.18666 c -0.99757,1.47839 -4.33547,-2.45541 -5.62221,-1.22048 -1.29443,1.24232 2.46608,4.75945 0.94441,5.70993 -1.51264,0.94484 -2.96193,-4.00652 -4.63973,-3.40172 -1.68782,0.60842 0.31704,5.35102 -1.45967,5.6004 -1.76616,0.24791 -1.07627,-4.86486 -2.85501,-4.99477 -1.78936,-0.13068 -1.88682,5.01735 -3.61136,4.52253 -1.7143,-0.49189 0.9955,-4.88204 -0.57662,-5.72419 -1.58151,-0.84718 -3.76444,3.81613 -5.13862,2.66265 -1.36603,-1.14663 2.89514,-4.05505 1.80147,-5.46383 -1.1002,-1.4172 -4.99115,1.95507 -5.77736,0.34239 -0.78155,-1.60311 4.29417,-2.52691 3.86806,-4.25874 -0.42866,-1.74216 -5.35484,-0.24403 -5.41715,-2.03707 -0.0619,-1.78241 4.95072,-0.56186 5.26584,-2.31727 0.317,-1.7659 -4.79263,-2.40095 -4.12025,-4.06432 0.66838,-1.65349 4.75123,1.50036 5.7531,0.0249 1.00785,-1.48429 -3.40174,-4.14271 -2.11094,-5.38879 1.28314,-1.23869 3.73021,3.30315 5.2456,2.36272 1.52443,-0.94603 -1.42265,-5.16816 0.26338,-5.7815 1.67603,-0.6097 2.06421,4.53479 3.83109,4.29203 1.77743,-0.2442 0.80243,-5.29999 2.59216,-5.17453 1.77911,0.12471 0.0413,4.98232 1.75415,5.47921 1.72308,0.49985 2.88875,-4.51541 4.47273,-3.67285 1.57457,0.83756 -1.98878,4.56837 -0.62611,5.71899 1.37081,1.15748 4.4756,-2.95007 5.57993,-1.5361 1.09778,1.40559 -3.67497,3.36451 -2.8981,4.9699 0.78151,1.61497 5.28856,-0.87464 5.7223,0.86627 0.43117,1.73057 -4.72571,1.57888 -4.66898,3.36146 0.0571,1.79322 5.18709,1.35203 4.87524,3.11885 -0.31,1.75633 -4.95935,-0.47974 -5.63255,1.1718 -0.67723,1.6614 4.18871,3.34492 3.1852,4.83215 z"
       inkscape:transform-center-x="0.4281515"
       inkscape:transform-center-y="-0.01319883"
       transform="matrix(2.1218862,0,0,2.0682323,-417.64996,372.36056)"
       style="fill:url(#radialGradient6100);fill-opacity:1.0" />
    <text
       xml:space="preserve"
       style="font-size:40px;font-style:normal;font-weight:normal;line-height:125%;letter-spacing:0px;word-spacing:0px;fill:#000000;fill-opacity:1;stroke:none;font-family:Sans"
       x="240.81081"
       y="354.57968"
       id="text2989"
       sodipodi:linespacing="125%"><tspan
         sodipodi:role="line"
         id="tspan2991"
         x="240.81081"
         y="354.57968"
         style="font-style:normal;font-variant:normal;font-weight:normal;font-stretch:normal;font-family:Santa Fe LET;-inkscape-font-specification:Santa Fe LET" /></text>
    <path
       sodipodi:type="star"
       id="path2999"
       sodipodi:sides="12"
       sodipodi:cx="231.39478"
       sodipodi:cy="313.90549"
       sodipodi:r1="13.289765"
       sodipodi:r2="12.999352"
       sodipodi:arg1="0.76845063"
       sodipodi:arg2="1.03025"
       inkscape:flatsided="true"
       inkscape:rounded="-2.47"
       inkscape:randomized="0"
       d="m 240.94996,323.14217 c 11.80971,-12.21694 -22.23447,8.21544 -5.89849,3.54011 16.33597,-4.67532 -23.36333,-4.00246 -6.8783,0.11658 16.48503,4.11904 -18.23201,-15.14789 -6.01508,-3.33819 12.21694,11.80971 -8.21543,-22.23446 -3.54011,-5.89849 4.67533,16.33598 4.00246,-23.36333 -0.11658,-6.8783 -4.11904,16.48503 15.1479,-18.23201 3.33819,-6.01507 -11.80971,12.21693 22.23447,-8.21544 5.89849,-3.54012 -16.33597,4.67533 23.36333,4.00246 6.8783,-0.11658 -16.48503,-4.11903 18.23201,15.1479 6.01508,3.33819 -12.21694,-11.80971 8.21543,22.23447 3.54011,5.89849 -4.67533,-16.33597 -4.00246,23.36334 0.11658,6.8783 4.11904,-16.48503 -15.14789,18.23202 -3.33819,6.01508 z"
       inkscape:transform-center-x="-0.010371859"
       inkscape:transform-center-y="0.017936907"
       transform="matrix(1.7967461,0,0,1.8054548,-383.45892,454.51074)"
       style="fill:url(#radialGradient6108);fill-opacity:1" />
    <g
       transform="scale(1.016177,0.98408052)"
       style="font-size:47.31112289px;font-style:normal;font-variant:normal;font-weight:normal;font-stretch:normal;line-height:125%;letter-spacing:0px;word-spacing:0px;fill:url(#linearGradient3918);fill-opacity:1;fill-rule:nonzero;stroke:none;font-family:Serto Jerusalem Outline;-inkscape-font-specification:Serto Jerusalem Outline"
       id="text3001">
      <path
         d="m 36.849386,1051.2267 c -1.7e-5,0.9549 -0.585245,1.4323 -1.755687,1.4323 l -5.220856,0 c -1.170466,0 -1.755694,-0.4774 -1.755686,-1.4323 -8e-6,-0.7238 0.346509,-1.1704 1.039551,-1.3399 0.261804,-0.077 0.893234,-0.1155 1.894293,-0.1155 l 0,-23.6093 c -0.677644,0.3696 -1.208969,0.5544 -1.593978,0.5544 -0.369627,0 -0.693043,-0.1463 -0.970248,-0.4389 -0.277222,-0.2926 -0.415828,-0.6237 -0.41582,-0.9934 -8e-6,-0.6622 0.431212,-1.155 1.293663,-1.4784 2.602716,-0.9857 3.996483,-1.4785 4.181305,-1.4785 0.246399,0 0.369605,0.154 0.369619,0.462 l 0,26.9821 c 1.001034,0 1.632464,0.039 1.894293,0.1155 0.693017,0.1695 1.039534,0.6161 1.039551,1.3399"
         style="fill:url(#linearGradient3928);fill-opacity:1;fill-rule:nonzero"
         id="path3124"
         inkscape:connector-curvature="0"
         sodipodi:nodetypes="cssccccscccscccc" />
      <path
         style="opacity:0;fill:#000000;fill-opacity:1;fill-rule:nonzero;stroke:#000000;stroke-width:0.10360539"
         d="m 29.299257,1051.5751 c -0.09813,-0.059 -0.178424,-0.2245 -0.178424,-0.3679 0,-0.3636 0.327428,-0.4659 1.491703,-0.4659 0.532757,0 1.057393,-0.049 1.165858,-0.109 0.193306,-0.1068 0.197209,-0.361 0.197209,-12.8423 l 0,-12.7333 -0.244598,-0.063 c -0.162747,-0.042 -0.522643,0.063 -1.075477,0.3138 -0.954375,0.4333 -1.48643,0.4896 -1.585383,0.1676 -0.08163,-0.2656 -0.0087,-0.385 0.353437,-0.5783 0.253653,-0.1355 3.330857,-1.3177 3.429756,-1.3177 0.02067,0 0.04956,6.0443 0.06421,13.4319 0.0261,13.158 0.03067,13.4349 0.224548,13.5813 0.138858,0.1048 0.494331,0.1494 1.191347,0.1494 1.197046,0 1.516491,0.1 1.516491,0.4738 0,0.1912 -0.07518,0.2979 -0.261528,0.3711 -0.355186,0.1394 -6.055578,0.1294 -6.289148,-0.011 z"
         id="path3920"
         inkscape:connector-curvature="0" />
      <path
         style="opacity:0;fill:#000000;fill-opacity:1;fill-rule:nonzero;stroke:#000000;stroke-width:0.10360539"
         d="m 29.299257,1051.5751 c -0.09813,-0.059 -0.178424,-0.2245 -0.178424,-0.3679 0,-0.3636 0.327428,-0.4659 1.491703,-0.4659 0.532757,0 1.057393,-0.049 1.165858,-0.109 0.193306,-0.1068 0.197209,-0.361 0.197209,-12.8423 l 0,-12.7333 -0.244598,-0.063 c -0.162747,-0.042 -0.522643,0.063 -1.075477,0.3138 -0.954375,0.4333 -1.48643,0.4896 -1.585383,0.1676 -0.08163,-0.2656 -0.0087,-0.385 0.353437,-0.5783 0.253653,-0.1355 3.330857,-1.3177 3.429756,-1.3177 0.02067,0 0.04956,6.0443 0.06421,13.4319 0.0261,13.158 0.03067,13.4349 0.224548,13.5813 0.138858,0.1048 0.494331,0.1494 1.191347,0.1494 1.197046,0 1.516491,0.1 1.516491,0.4738 0,0.1912 -0.07518,0.2979 -0.261528,0.3711 -0.355186,0.1394 -6.055578,0.1294 -6.289148,-0.011 z"
         id="path3922"
         inkscape:connector-curvature="0" />
      <path
         style="opacity:0;fill:#000000;fill-opacity:1;fill-rule:nonzero;stroke:#000000;stroke-width:0.10360539"
         d="m 30.854086,1062.3621 c -0.140189,-0.025 -0.690752,-0.1211 -1.223472,-0.2133 -3.244487,-0.5611 -7.949619,-1.9618 -9.371916,-2.79 -2.225231,-1.2957 -7.882746,-7.0484 -9.011931,-9.1635 -0.890794,-1.6686 -2.3957666,-6.729 -3.0313331,-10.1927 -0.3408126,-1.8573 -0.2123852,-3.4432 0.562714,-6.9486 0.6431901,-2.9088 1.6595851,-6.2488 2.2061651,-7.2498 0.54727,-1.0023 2.190919,-3.0147 4.168542,-5.1039 2.102925,-2.2215 3.655608,-3.6553 4.490804,-4.1469 2.400308,-1.4128 10.309716,-3.6482 12.250883,-3.4624 3.005856,0.2877 9.575193,2.0504 11.296226,3.031 2.120608,1.2084 7.717081,6.7786 8.984861,8.9428 0.863888,1.4747 2.395411,6.4523 3.103924,10.0881 0.419213,2.1513 0.305609,3.7982 -0.516095,7.4817 -0.628768,2.8187 -1.537621,5.8248 -2.118548,7.0072 -0.90125,1.8344 -6.513068,7.9004 -8.545879,9.2375 -1.312825,0.8635 -6.338898,2.5688 -9.370615,3.1794 -0.476644,0.096 -0.935447,0.2091 -1.01956,0.2514 -0.167337,0.084 -2.44463,0.1256 -2.85477,0.052 z m 2.35119,-4.2989 c 0.566948,-0.4896 1.580387,-1.3003 2.25209,-1.8017 l 1.221279,-0.9116 0.885583,0.069 c 1.904228,0.1487 3.802567,0.372 4.570634,0.5376 0.170682,0.037 0.233865,-0.016 0.288497,-0.2417 0.131977,-0.5447 0.788527,-2.29 1.411628,-3.7525 l 0.623521,-1.4636 1.49313,-0.755 c 0.821223,-0.4153 1.997086,-0.9602 2.613027,-1.2109 l 1.119895,-0.4557 -0.128858,-0.642 c -0.173899,-0.8665 -0.424276,-2.7113 -0.554855,-4.0884 l -0.107167,-1.1302 0.734408,-1.1334 c 0.738955,-1.1404 1.666338,-2.4536 2.291335,-3.2446 l 0.337195,-0.4268 -0.555348,-0.6575 c -0.540467,-0.64 -2.383155,-3.1404 -2.75007,-3.7318 -0.162274,-0.2616 -0.174892,-0.4497 -0.112282,-1.6744 0.06283,-1.2289 0.222605,-2.7525 0.425419,-4.0566 0.0518,-0.3331 0.03389,-0.4581 -0.07089,-0.4948 -0.954195,-0.3346 -2.462755,-0.9506 -3.669838,-1.4985 l -1.490509,-0.6765 -0.713712,-1.5481 c -0.392541,-0.8514 -0.912434,-2.0573 -1.15532,-2.6798 -0.242885,-0.6224 -0.493051,-1.1317 -0.555923,-1.1317 -0.06287,0 -0.776277,0.114 -1.585343,0.2533 -0.809068,0.1394 -2.029345,0.3098 -2.71173,0.3787 l -1.240699,0.1254 -1.35918,-0.9506 c -0.747549,-0.5229 -1.787299,-1.3049 -2.310556,-1.7377 l -0.951374,-0.787 -1.087747,0.9404 c -0.598259,0.5173 -1.617304,1.3316 -2.264544,1.8095 l -1.176797,0.869 -1.270147,-0.079 c -1.22319,-0.077 -3.362541,-0.3214 -4.04688,-0.4631 -0.234542,-0.049 -0.343501,-0.027 -0.377273,0.076 -0.324137,0.9859 -0.921514,2.5453 -1.456866,3.8029 l -0.661026,1.5529 -1.340337,0.6738 c -1.130657,0.5684 -1.957421,0.9456 -3.621331,1.6522 -0.267016,0.1134 -0.269305,-0.01 0.03334,1.7274 0.08092,0.4632 0.224878,1.6035 0.319913,2.534 l 0.172789,1.6918 -0.747102,1.1508 c -0.765823,1.1797 -1.524687,2.2607 -2.17503,3.0985 -0.202267,0.2606 -0.368204,0.5119 -0.368748,0.5585 -5.4e-4,0.047 0.26776,0.4071 0.596233,0.8012 0.727659,0.873 1.991806,2.5914 2.485052,3.378 l 0.363109,0.579 -0.08959,1.3687 c -0.08382,1.2804 -0.35336,3.726 -0.465188,4.2207 -0.04448,0.1968 0.07754,0.2666 1.155201,0.6607 0.662714,0.2424 1.847259,0.7356 2.632321,1.096 l 1.427384,0.6553 0.680104,1.4213 c 0.374057,0.7817 0.900124,1.9898 1.169037,2.6847 0.268912,0.6949 0.498115,1.2791 0.509341,1.2984 0.01123,0.019 0.379823,-0.038 0.819107,-0.1284 1.048391,-0.2146 2.81308,-0.4581 3.962482,-0.5467 l 0.920751,-0.071 1.220326,0.8533 c 0.671178,0.4693 1.679127,1.2292 2.239885,1.6886 0.560759,0.4594 1.052836,0.8394 1.093503,0.8445 0.04067,0.01 0.537808,-0.3912 1.104753,-0.8807 z"
         id="path3924"
         inkscape:connector-curvature="0" />
    </g>
  </g>
</svg>
